<?xml version="1.0" encoding="utf-8"?>
<!-- Generator: Adobe Illustrator 22.0.1, SVG Export Plug-In . SVG Version: 6.00 Build 0)  -->
<svg version="1.1" id="Calque_1" xmlns="http://www.w3.org/2000/svg" xmlns:xlink="http://www.w3.org/1999/xlink" x="0px" y="0px"
	 viewBox="0 0 200 60" style="enable-background:new 0 0 200 60;" xml:space="preserve">
<style type="text/css">
	.st0{fill-rule:evenodd;clip-rule:evenodd;}
	.st1{fill-rule:evenodd;clip-rule:evenodd;fill:#FFFFFF;}
</style>
<g>
	<polygon class="st0" points="-0.6,60 199.5,60 199.5,-1.3 -0.6,-1.3 -0.6,60 	"/>
</g>
<g>
	<path class="st1" d="M31.4,43.5c0,0.3-0.2,0.6-0.2,0.6s-0.2,0.2-0.5,0.3c-4,1.7-8.6,1.1-8.6,1.1c-7.3-0.8-11.9-5.3-13.4-11.2
		c-2.2-8.8,2.2-15,3.2-16.3c2.6-3.1,6.6-5.3,10.5-5.9c5-0.7,8.7,0.5,10.2,1c0,0,1.7,0.6,3,1.4c0.6,0.4,0.7,0.6,0.7,0.6
		s0,0.1-0.1,0.8L35,22.2c0,0.3-0.2,0.4-0.2,0.4s-0.1,0-0.7-0.3c-3.8-2.7-8.2-2.4-8.2-2.4c-3.4,0.2-7.3,2-8.5,6.5
		c-1.1,4,0,7.4,2.4,9.4c1.6,1.4,4.1,2.1,6.7,2c2.9-0.2,5.1-1.4,5-1.3c0,0,0.1,0,0.3-0.1c0.6-0.3,0.7-0.3,0.7-0.3s0.1,0.1,0,0.5
		L31.4,43.5L31.4,43.5z M53,22.2C53,22.2,52.9,22.2,53,22.2L48.7,32c-0.1,0.1,0,0.2,0,0.2s0,0,0.3,0l6.2,0c0,0,0.1,0,0.1,0
		s0,0,0-0.2L53,22.2C53,22.2,53,22.2,53,22.2L53,22.2z M123,22.1c0,0,0,0-0.1,0.2l-4.2,9.7c-0.1,0.3,0,0.3,0,0.3s0.1,0.1,0.2,0.1
		l6.2,0c0,0,0.1,0,0.1,0s0,0,0-0.2l-2.1-9.9C123,22.1,123,22.1,123,22.1L123,22.1z M65.8,44.6l-7.5,0c-0.2,0-0.3-0.1-0.3-0.1
		s0,0-0.1-0.3l-1.2-4.9c0-0.1-0.1-0.2-0.1-0.2s0,0-0.1,0H45.9c-0.2,0-0.3,0.2-0.3,0.2s-0.2,0.1-0.3,0.4l-2.1,4.6
		c-0.1,0.2-0.1,0.2-0.1,0.2s-0.1,0.1-0.3,0.1h-8.7c-0.2,0-0.3-0.1-0.3-0.1s0-0.1,0-0.3L49,13.3c0.1-0.2,0.2-0.2,0.2-0.2s0.1,0,0.3,0
		h9.7c0.2,0,0.3,0.1,0.3,0.1s0,0,0.1,0.2l6.5,31c0,0.1-0.1,0.2-0.1,0.2S65.9,44.6,65.8,44.6L65.8,44.6z M99.5,44.7h-7.7
		c-0.1,0-0.3,0-0.3,0s0,0-0.1-0.1L80.8,25.3c-0.1-0.1-0.1-0.1-0.1-0.1s-0.1,0-0.1,0.1l-2.7,18.9c0,0.2-0.1,0.3-0.1,0.3s-0.1,0-0.2,0
		h-7.7c-0.1,0-0.2-0.1-0.2-0.1s-0.2-0.2-0.1-0.3l4.2-30.7c0-0.2,0.1-0.2,0.1-0.2s0.1-0.1,0.2-0.1h8.6c0.1,0,0.2,0.1,0.2,0.1
		s0.1,0,0.1,0.2l9.7,17.2c0.2,0.3,0.3,0.3,0.3,0.3s0.1,0,0.2-0.4l2.4-17.1c0-0.1,0.1-0.2,0.1-0.2s0-0.1,0.2-0.1l8.1,0.1
		c0.2,0,0.2,0,0.2,0s0,0,0,0.1l-4.3,30.9c0,0.2-0.1,0.3-0.1,0.3S99.7,44.7,99.5,44.7L99.5,44.7z M135.7,44.7H128
		c-0.2,0.1-0.3-0.1-0.3-0.1s0,0-0.1-0.3l-1-4.8c-0.1-0.3-0.2-0.4-0.2-0.4s-0.2-0.1-0.5-0.1h-10c-0.2,0-0.3,0.1-0.3,0.1
		s-0.2,0.2-0.3,0.4l-2.3,4.9c0,0.1-0.1,0.2-0.1,0.2s-0.2,0-0.3,0H104c-0.2,0-0.3-0.1-0.3-0.1s0-0.1,0.1-0.3l15.3-31
		c0.1,0,0.2-0.2,0.2-0.2s0.1,0,0.3,0h9.5c0.2,0,0.3,0.1,0.3,0.1s0,0,0.1,0.2l6.4,31.1c0,0.1,0,0.1,0,0.1S135.8,44.7,135.7,44.7
		L135.7,44.7z M157.8,44.3c0,0.3-0.1,0.3-0.1,0.3s0,0.1-0.3,0.1h-17.4c-0.5,0-0.6-0.1-0.6-0.1s-0.1-0.2,0-0.6l4.3-30.4
		c0-0.4,0.1-0.5,0.1-0.5s0,0,0.5,0h7.9c0.2,0,0.3,0,0.3,0s0,0.1,0,0.3l-3.2,23.7c0,0.3,0.1,0.3,0.1,0.3s0.1,0,0.4,0h8.6
		c0.2,0,0.2,0.1,0.2,0.1s0,0,0,0.3L157.8,44.3L157.8,44.3z M191.3,32.2c0,0,0,0.1-0.2,0.1h-10.8c-0.2,0-0.3,0.1-0.3,0.1
		s-0.1,0-0.1,0.3v11.7c0,0.2-0.1,0.2-0.1,0.2s0,0.1-0.2,0.1h-8.6c-0.1,0-0.2-0.1-0.2-0.1s0,0,0-0.3V32.6c0-0.1-0.1-0.2-0.1-0.2
		s0-0.1-0.2-0.1h-11.1c-0.2,0-0.3,0-0.3,0s-0.1-0.1-0.1-0.3v-8.5c0-0.1,0.1-0.2,0.1-0.2s0,0,0.1,0h11.3c0.1,0,0.1,0,0.1,0
		s0.1,0,0.1-0.1V12.7c0-0.1,0-0.2,0-0.2s0.1,0,0.3,0h8.4c0.2,0,0.2,0,0.2,0s0.1,0.1,0.1,0.3v10.3h11c0.3,0,0.4,0,0.4,0
		s0.1,0,0.1,0.3V32C191.4,32.1,191.3,32.2,191.3,32.2L191.3,32.2z"/>
</g>
</svg>
